<svg viewBox="0 0 800 520" xmlns="http://www.w3.org/2000/svg">
<defs>
  <linearGradient id="wsBg" x1="0" y1="0" x2="0" y2="1"><stop offset="0%" stop-color="#1c2026"/><stop offset="100%" stop-color="#2d3540"/></linearGradient>
  <linearGradient id="steelG" x1="0" y1="0" x2="1" y2="1"><stop offset="0%" stop-color="#9e9e9e"/><stop offset="40%" stop-color="#e0e0e0"/><stop offset="100%" stop-color="#616161"/></linearGradient>
  <linearGradient id="handleG" x1="0" y1="0" x2="1" y2="1"><stop offset="0%" stop-color="#a1887f"/><stop offset="100%" stop-color="#5d4037"/></linearGradient>
  <linearGradient id="tableG" x1="0" y1="0" x2="0" y2="1"><stop offset="0%" stop-color="#4e342e"/><stop offset="100%" stop-color="#3e2723"/></linearGradient>
  <filter id="glow"><feGaussianBlur stdDeviation="4" result="b"/><feMerge><feMergeNode in="b"/><feMergeNode in="SourceGraphic"/></feMerge></filter>
  <filter id="metalShd"><feDropShadow dx="4" dy="8" stdDeviation="6" flood-color="#000" flood-opacity="0.5"/></filter>
</defs>
<rect width="800" height="520" fill="url(#wsBg)"/>
<!-- Workshop shelf/wall background -->
<rect x="0" y="0" width="800" height="380" fill="#1a2130" opacity="0.8"/>
<line x1="0" y1="380" x2="800" y2="380" stroke="#3a4555" stroke-width="2"/>
<!-- Workshop table -->
<rect x="40" y="330" width="720" height="50" rx="5" fill="url(#tableG)" filter="url(#metalShd)"/>
<rect x="40" y="330" width="720" height="8" rx="5" fill="#6d4c41"/>
<!-- Table legs -->
<rect x="65" y="378" width="25" height="80" rx="4" fill="#4e342e"/>
<rect x="710" y="378" width="25" height="80" rx="4" fill="#4e342e"/>
<!-- Background tools hanging -->
<g opacity="0.25">
  <rect x="75" y="60" width="8" height="200" rx="4" fill="#9e9e9e"/>
  <ellipse cx="79" cy="60" rx="14" ry="10" fill="#9e9e9e"/>
  <rect x="130" y="40" width="8" height="160" rx="4" fill="#9e9e9e"/>
  <ellipse cx="134" cy="40" rx="18" ry="12" fill="#9e9e9e"/>
  <rect x="660" y="50" width="8" height="180" rx="4" fill="#9e9e9e"/>
  <polygon points="655,50 675,50 664,20" fill="#9e9e9e"/>
  <rect x="710" y="70" width="8" height="150" rx="4" fill="#9e9e9e"/>
  <ellipse cx="714" cy="70" rx="16" ry="14" fill="#9e9e9e"/>
  <ellipse cx="714" cy="70" rx="8" ry="7" fill="#1c2026"/>
</g>
<!-- MAIN MULTI-PURPOSE TOOL -->
<!-- Handle -->
<rect x="350" y="200" width="28" height="220" rx="10" fill="url(#handleG)" filter="url(#metalShd)"/>
<rect x="353" y="205" width="7" height="210" rx="3" fill="#a1887f" opacity="0.4"/>
<!-- Handle wrap grooves -->
<g fill="none" stroke="#4e342e" stroke-width="2.5" opacity="0.5">
  <line x1="350" y1="245" x2="378" y2="245"/>
  <line x1="350" y1="265" x2="378" y2="265"/>
  <line x1="350" y1="285" x2="378" y2="285"/>
  <line x1="350" y1="305" x2="378" y2="305"/>
  <line x1="350" y1="325" x2="378" y2="325"/>
  <line x1="350" y1="345" x2="378" y2="345"/>
  <line x1="350" y1="365" x2="378" y2="365"/>
  <line x1="350" y1="385" x2="378" y2="385"/>
</g>
<!-- Collar / tang section -->
<rect x="343" y="192" width="42" height="20" rx="5" fill="#616161" stroke="#424242" stroke-width="2"/>
<!-- Attachment: trowel head top -->
<polygon points="310,100 418,100 440,195 288,195" fill="url(#steelG)" filter="url(#metalShd)"/>
<!-- Cutting edge bevel top -->
<polygon points="310,100 418,100 422,108 306,108" fill="#e0e0e0"/>
<!-- Center ridge on blade -->
<line x1="364" y1="100" x2="364" y2="195" stroke="#bdbdbd" stroke-width="2.5"/>
<!-- Tilling teeth bottom of attachment -->
<g fill="url(#steelG)" filter="url(#metalShd)">
  <polygon points="310,356 334,356 334,420 322,440 310,420"/>
  <polygon points="340,356 364,356 364,420 352,440 340,420"/>
  <polygon points="370,356 394,356 394,420 382,440 370,420"/>
  <!-- Tooth edge highlights -->
  <polygon points="310,356 312,356 312,418 310,420" fill="#e0e0e0"/>
  <polygon points="340,356 342,356 342,418 340,420" fill="#e0e0e0"/>
  <polygon points="370,356 372,356 372,418 370,420" fill="#e0e0e0"/>
</g>
<!-- Connector plate between handle and teeth -->
<rect x="296" y="325" width="136" height="38" rx="5" fill="#757575" stroke="#424242" stroke-width="2"/>
<!-- Bolts on plate -->
<circle cx="312" cy="344" r="6" fill="#424242" stroke="#9e9e9e" stroke-width="1.5"/>
<circle cx="416" cy="344" r="6" fill="#424242" stroke="#9e9e9e" stroke-width="1.5"/>
<circle cx="364" cy="336" r="6" fill="#424242" stroke="#9e9e9e" stroke-width="1.5"/>
<circle cx="364" cy="356" r="6" fill="#424242" stroke="#9e9e9e" stroke-width="1.5"/>
<!-- Metric ruler alongside -->
<rect x="470" y="120" width="22" height="310" rx="4" fill="#f5f5f5" stroke="#9e9e9e" stroke-width="1.5"/>
<g fill="none" stroke="#9e9e9e" stroke-width="1">
  <line x1="470" y1="150" x2="492" y2="150"/>
  <line x1="470" y1="170" x2="492" y2="170"/>
  <line x1="470" y1="190" x2="492" y2="190"/>
  <line x1="470" y1="210" x2="492" y2="210"/>
  <line x1="470" y1="230" x2="492" y2="230"/>
  <line x1="470" y1="250" x2="492" y2="250"/>
  <line x1="470" y1="270" x2="492" y2="270"/>
  <line x1="470" y1="290" x2="492" y2="290"/>
  <line x1="470" y1="310" x2="492" y2="310"/>
  <line x1="470" y1="330" x2="492" y2="330"/>
  <line x1="470" y1="350" x2="492" y2="350"/>
  <line x1="470" y1="370" x2="492" y2="370"/>
  <line x1="470" y1="390" x2="492" y2="390"/>
  <line x1="470" y1="410" x2="492" y2="410"/>
</g>
<!-- Annotation lines -->
<line x1="440" y1="148" x2="535" y2="148" stroke="#ffd54f" stroke-width="1.2" stroke-dasharray="6 4" opacity="0.7"/>
<text x="538" y="152" font-family="Arial,sans-serif" font-size="11" fill="#ffd54f">Hardened steel blade</text>
<line x1="382" y1="218" x2="535" y2="218" stroke="#90caf9" stroke-width="1.2" stroke-dasharray="6 4" opacity="0.7"/>
<text x="538" y="222" font-family="Arial,sans-serif" font-size="11" fill="#90caf9">Quick-release collar</text>
<line x1="394" y1="390" x2="535" y2="390" stroke="#a5d6a7" stroke-width="1.2" stroke-dasharray="6 4" opacity="0.7"/>
<text x="538" y="394" font-family="Arial,sans-serif" font-size="11" fill="#a5d6a7">Tilling teeth (3 prongs)</text>
<line x1="378" y1="330" x2="535" y2="295" stroke="#ef9a9a" stroke-width="1.2" stroke-dasharray="6 4" opacity="0.7"/>
<text x="538" y="299" font-family="Arial,sans-serif" font-size="11" fill="#ef9a9a">Wooden handle</text>
<!-- Label -->
<rect x="18" y="436" width="290" height="62" rx="7" fill="#000" fill-opacity="0.62"/>
<text x="163" y="459" text-anchor="middle" font-family="'Segoe UI',Arial,sans-serif" font-size="15" font-weight="700" fill="#fff">Manual Multi-Purpose Farming Tool</text>
<text x="163" y="481" text-anchor="middle" font-family="'Segoe UI',Arial,sans-serif" font-size="11" fill="#80cbc4">Field Equipment · Est. ₹850</text>
</svg>