<svg viewBox="0 0 800 520" xmlns="http://www.w3.org/2000/svg">
<defs>
  <linearGradient id="shopBg" x1="0" y1="0" x2="0" y2="1"><stop offset="0%" stop-color="#1a1a2e"/><stop offset="100%" stop-color="#16213e"/></linearGradient>
  <linearGradient id="woodBox" x1="0" y1="0" x2="1" y2="1"><stop offset="0%" stop-color="#8d6e63"/><stop offset="100%" stop-color="#4e342e"/></linearGradient>
  <linearGradient id="woodSide2" x1="0" y1="0" x2="1" y2="0"><stop offset="0%" stop-color="#6d4c41"/><stop offset="100%" stop-color="#4e342e"/></linearGradient>
  <linearGradient id="metalDisc" x1="0" y1="0" x2="1" y2="1"><stop offset="0%" stop-color="#b0bec5"/><stop offset="50%" stop-color="#eceff1"/><stop offset="100%" stop-color="#78909c"/></linearGradient>
  <linearGradient id="grainIn" x1="0" y1="0" x2="0" y2="1"><stop offset="0%" stop-color="#f9a825"/><stop offset="100%" stop-color="#e65100"/></linearGradient>
  <filter id="shMach"><feDropShadow dx="5" dy="10" stdDeviation="8" flood-color="#000" flood-opacity="0.5"/></filter>
  <filter id="shSoft"><feDropShadow dx="2" dy="4" stdDeviation="3" flood-color="#000" flood-opacity="0.3"/></filter>
</defs>
<rect width="800" height="520" fill="url(#shopBg)"/>
<!-- Barn/workshop background planks -->
<g fill="#1a1a2e" stroke="#0d0d1a" stroke-width="1">
  <rect x="0" y="0" width="65" height="520"/>
  <rect x="68" y="0" width="65" height="520"/>
  <rect x="136" y="0" width="65" height="520"/>
  <rect x="204" y="0" width="65" height="520"/>
  <rect x="272" y="0" width="800" height="520"/>
</g>
<!-- Floor -->
<rect y="420" width="800" height="100" fill="#212121"/>
<line x1="0" y1="422" x2="800" y2="422" stroke="#333" stroke-width="2"/>
<!-- Ground shadow -->
<ellipse cx="375" cy="424" rx="240" ry="12" fill="#000" opacity="0.3"/>
<!-- Main machine body (wooden box) -->
<polygon points="140,140 530,140 510,420 160,420" fill="url(#woodBox)" filter="url(#shMach)"/>
<!-- Side shading -->
<polygon points="530,140 570,155 548,424 510,420" fill="url(#woodSide2)"/>
<!-- Wood grain lines on front -->
<g stroke="#5d4037" stroke-width="1" opacity="0.3">
  <line x1="145" y1="160" x2="520" y2="160"/>
  <line x1="148" y1="200" x2="518" y2="200"/>
  <line x1="152" y1="240" x2="514" y2="240"/>
  <line x1="156" y1="280" x2="510" y2="280"/>
  <line x1="160" y1="320" x2="506" y2="320"/>
  <line x1="163" y1="360" x2="502" y2="360"/>
  <line x1="166" y1="400" x2="500" y2="400"/>
</g>
<!-- Top frame of box -->
<rect x="136" y="134" width="398" height="20" rx="4" fill="#a1887f" stroke="#6d4c41" stroke-width="2"/>
<!-- Fan disc (circle side view) -->
<circle cx="360" cy="245" r="88" fill="url(#metalDisc)" filter="url(#shSoft)"/>
<circle cx="360" cy="245" r="82" fill="none" stroke="#90a4ae" stroke-width="2.5"/>
<!-- Fan blades -->
<g fill="#9e9e9e" stroke="#78909c" stroke-width="1">
  <polygon points="360,200 372,240 360,248 348,240"/>
  <polygon points="360,290 372,250 360,242 348,250"/>
  <polygon points="315,245 355,233 363,245 355,257"/>
  <polygon points="405,245 365,233 357,245 365,257"/>
  <polygon points="326,211 354,238 352,248 340,244"/>
  <polygon points="394,279 366,252 368,242 380,246"/>
  <polygon points="394,211 366,238 368,248 380,244"/>
  <polygon points="326,279 354,252 352,242 340,246"/>
</g>
<!-- Fan hub -->
<circle cx="360" cy="245" r="22" fill="#546e7a" stroke="#37474f" stroke-width="2"/>
<circle cx="360" cy="245" r="12" fill="#37474f"/>
<circle cx="360" cy="245" r="6" fill="#263238"/>
<!-- Fan axle shaft sticking out right -->
<rect x="440" y="240" width="60" height="14" rx="5" fill="#78909c"/>
<!-- Hand crank -->
<circle cx="530" cy="247" r="22" fill="url(#metalDisc)" stroke="#546e7a" stroke-width="2.5"/>
<circle cx="530" cy="247" r="10" fill="#455a64"/>
<rect x="526" y="225" width="8" height="40" rx="3" fill="#9e9e9e"/>
<circle cx="530" cy="222" r="8" fill="#263238" stroke="#546e7a" stroke-width="1.5"/>
<!-- Grain input hopper on top -->
<polygon points="270,80 440,80 420,138 290,138" fill="#a1887f" stroke="#6d4c41" stroke-width="2"/>
<polygon points="270,80 290,80 290,138 270,138" fill="#8d6e63" opacity="0.6"/>
<!-- Hopper opening top -->
<ellipse cx="355" cy="80" rx="85" ry="18" fill="#795548" stroke="#6d4c41" stroke-width="2"/>
<!-- Grain particles falling into hopper -->
<g fill="url(#grainIn)">
  <ellipse cx="340" cy="64" rx="5" ry="4"/>
  <ellipse cx="362" cy="58" rx="5" ry="4"/>
  <ellipse cx="380" cy="67" rx="5" ry="4"/>
  <ellipse cx="352" cy="50" rx="4" ry="3"/>
  <ellipse cx="373" cy="50" rx="4" ry="3"/>
  <ellipse cx="330" cy="53" rx="4" ry="3"/>
  <ellipse cx="345" cy="42" rx="3.5" ry="3"/>
  <ellipse cx="365" cy="40" rx="3.5" ry="3"/>
  <ellipse cx="382" cy="44" rx="3" ry="2.5"/>
</g>
<!-- Grain stream through machine interior -->
<g fill="url(#grainIn)" opacity="0.55">
  <ellipse cx="330" cy="155" rx="4" ry="3"/>
  <ellipse cx="350" cy="168" rx="4" ry="3"/>
  <ellipse cx="370" cy="160" rx="4" ry="3"/>
  <ellipse cx="340" cy="180" rx="4" ry="3"/>
  <ellipse cx="360" cy="190" rx="4" ry="3"/>
  <ellipse cx="380" cy="178" rx="4" ry="3"/>
</g>
<!-- Cleaned grain output tray -->
<polygon points="155,390 260,390 280,420 135,420" fill="#5d4037" stroke="#4e342e" stroke-width="2"/>
<polygon points="260,390 280,420 285,416 265,386" fill="#4e342e"/>
<!-- Grain in output tray -->
<g fill="#f9a825">
  <ellipse cx="175" cy="408" rx="5" ry="4"/>
  <ellipse cx="193" cy="405" rx="5" ry="4"/>
  <ellipse cx="211" cy="408" rx="5" ry="4"/>
  <ellipse cx="229" cy="405" rx="5" ry="4"/>
  <ellipse cx="247" cy="408" rx="5" ry="4"/>
  <ellipse cx="186" cy="413" rx="4" ry="3"/>
  <ellipse cx="204" cy="415" rx="4" ry="3"/>
  <ellipse cx="222" cy="413" rx="4" ry="3"/>
  <ellipse cx="240" cy="415" rx="4" ry="3"/>
</g>
<!-- Chaff/waste output on right -->
<path d="M508,390 Q540,395 560,418" fill="none" stroke="#8d6e63" stroke-width="10" stroke-linecap="round"/>
<g fill="#8d6e63" opacity="0.6">
  <ellipse cx="566" cy="416" rx="9" ry="5"/>
  <ellipse cx="575" cy="422" rx="7" ry="4"/>
  <ellipse cx="556" cy="423" rx="8" ry="5"/>
  <ellipse cx="582" cy="415" rx="6" ry="4"/>
</g>
<!-- Labels with arrows -->
<rect x="590" y="60" width="190" height="42" rx="6" fill="#000" fill-opacity="0.5"/>
<text x="685" y="78" text-anchor="middle" font-family="Arial,sans-serif" font-size="11" fill="#ffd54f">Grain Input Hopper</text>
<line x1="440" y1="78" x2="590" y2="78" stroke="#ffd54f" stroke-width="1.2" stroke-dasharray="5 4" opacity="0.7"/>
<text x="685" y="96" text-anchor="middle" font-family="Arial,sans-serif" font-size="11" fill="#90caf9">Hand-cranked Fan</text>
<line x1="530" y1="247" x2="590" y2="96" stroke="#90caf9" stroke-width="1.2" stroke-dasharray="5 4" opacity="0.7"/>
<!-- Label card -->
<rect x="18" y="440" width="270" height="58" rx="7" fill="#000" fill-opacity="0.62"/>
<text x="153" y="462" text-anchor="middle" font-family="'Segoe UI',Arial,sans-serif" font-size="15" font-weight="700" fill="#fff">Portable Grain Cleaning Machine</text>
<text x="153" y="483" text-anchor="middle" font-family="'Segoe UI',Arial,sans-serif" font-size="11" fill="#ffd54f">Post-Harvest · Est. ₹2,100</text>
</svg>