<svg viewBox="0 0 800 520" xmlns="http://www.w3.org/2000/svg">
<defs>
  <linearGradient id="stormSky" x1="0" y1="0" x2="0" y2="1"><stop offset="0%" stop-color="#1c2e40"/><stop offset="100%" stop-color="#34495e"/></linearGradient>
  <linearGradient id="roofG" x1="0" y1="0" x2="0" y2="1"><stop offset="0%" stop-color="#7f5539"/><stop offset="100%" stop-color="#53342a"/></linearGradient>
  <linearGradient id="wallG" x1="0" y1="0" x2="0" y2="1"><stop offset="0%" stop-color="#d9c5a0"/><stop offset="100%" stop-color="#b09a76"/></linearGradient>
  <linearGradient id="tankG" x1="0" y1="0" x2="1" y2="0"><stop offset="0%" stop-color="#1a527a"/><stop offset="50%" stop-color="#2980b9"/><stop offset="100%" stop-color="#1a527a"/></linearGradient>
  <linearGradient id="waterG" x1="0" y1="0" x2="0" y2="1"><stop offset="0%" stop-color="#5dade2"/><stop offset="100%" stop-color="#1a5276"/></linearGradient>
  <radialGradient id="tankShine" cx="30%" cy="20%" r="60%"><stop offset="0%" stop-color="#fff" stop-opacity="0.2"/><stop offset="100%" stop-color="#000" stop-opacity="0"/></radialGradient>
  <filter id="sh2"><feDropShadow dx="3" dy="6" stdDeviation="5" flood-color="#000" flood-opacity="0.3"/></filter>
</defs>
<rect width="800" height="520" fill="url(#stormSky)"/>
<rect y="400" width="800" height="120" fill="#4a5c2e"/>
<line x1="0" y1="414" x2="800" y2="414" stroke="#3a4c20" stroke-width="1.5"/>
<!-- Rain clouds -->
<g opacity="0.80">
  <ellipse cx="300" cy="60" rx="120" ry="48" fill="#4a5568"/>
  <ellipse cx="230" cy="72" rx="80" ry="40" fill="#4a5568"/>
  <ellipse cx="370" cy="68" rx="90" ry="44" fill="#5a6272"/>
  <ellipse cx="600" cy="50" rx="90" ry="40" fill="#4a5568"/>
  <ellipse cx="665" cy="62" rx="75" ry="38" fill="#5a6272"/>
</g>
<!-- Rain drops -->
<g fill="#88c0e8" opacity="0.65">
  <rect x="190" y="115" width="2.5" height="12" rx="1.2"/>
  <rect x="220" y="120" width="2.5" height="12" rx="1.2"/>
  <rect x="255" y="110" width="2.5" height="12" rx="1.2"/>
  <rect x="290" y="118" width="2.5" height="12" rx="1.2"/>
  <rect x="325" y="113" width="2.5" height="12" rx="1.2"/>
  <rect x="360" y="120" width="2.5" height="12" rx="1.2"/>
  <rect x="395" y="109" width="2.5" height="12" rx="1.2"/>
  <rect x="145" y="128" width="2.5" height="10" rx="1.2"/>
  <rect x="175" y="135" width="2.5" height="10" rx="1.2"/>
  <rect x="210" y="138" width="2.5" height="10" rx="1.2"/>
  <rect x="240" y="130" width="2.5" height="10" rx="1.2"/>
  <rect x="275" y="140" width="2.5" height="10" rx="1.2"/>
  <rect x="310" y="133" width="2.5" height="10" rx="1.2"/>
  <rect x="350" y="142" width="2.5" height="10" rx="1.2"/>
  <rect x="545" y="108" width="2.5" height="12" rx="1.2"/>
  <rect x="575" y="116" width="2.5" height="12" rx="1.2"/>
  <rect x="610" y="104" width="2.5" height="12" rx="1.2"/>
  <rect x="645" y="120" width="2.5" height="12" rx="1.2"/>
  <rect x="680" y="112" width="2.5" height="12" rx="1.2"/>
</g>
<!-- House shadow -->
<ellipse cx="290" cy="412" rx="195" ry="14" fill="#000" opacity="0.22"/>
<!-- House walls -->
<rect x="95" y="245" width="380" height="170" fill="url(#wallG)" filter="url(#sh2)"/>
<!-- Window -->
<rect x="135" y="285" width="70" height="60" rx="3" fill="#aed6f1" stroke="#8b9fa8" stroke-width="2"/>
<line x1="170" y1="285" x2="170" y2="345" stroke="#8b9fa8" stroke-width="1.5"/>
<line x1="135" y1="315" x2="205" y2="315" stroke="#8b9fa8" stroke-width="1.5"/>
<!-- Door -->
<rect x="325" y="310" width="65" height="105" rx="4" fill="#8b5e3c" stroke="#6b452c" stroke-width="2"/>
<circle cx="381" cy="362" r="5" fill="#c7a040"/>
<!-- Roof peak -->
<polygon points="72,248 285,142 498,248" fill="url(#roofG)" filter="url(#sh2)"/>
<polygon points="72,248 285,142 295,148 82,256" fill="#6e4030"/>
<!-- Roof overhang -->
<line x1="72" y1="248" x2="498" y2="248" stroke="#6e4030" stroke-width="4"/>
<!-- Gutter on roof edge -->
<rect x="62" y="246" width="450" height="12" rx="5" fill="#546e7a" stroke="#37474f" stroke-width="1.5"/>
<!-- Gutter downspout left -->
<rect x="66" y="258" width="12" height="90" rx="4" fill="#607d8b"/>
<!-- Filter mesh box -->
<rect x="56" y="346" width="32" height="28" rx="4" fill="#455a64" stroke="#546e7a" stroke-width="1.5"/>
<text x="72" y="362" text-anchor="middle" font-family="Arial,sans-serif" font-size="8" fill="#cfd8dc">FILTER</text>
<!-- Pipe from filter to tank -->
<path d="M72,374 Q72,395 200,395 Q340,395 340,400" fill="none" stroke="#607d8b" stroke-width="8" stroke-linejoin="round"/>
<path d="M72,374 Q72,395 200,395 Q340,395 340,400" fill="none" stroke="#78909c" stroke-width="3" stroke-linejoin="round"/>
<!-- Overflow pipe on right -->
<rect x="490" y="258" width="12" height="70" rx="4" fill="#607d8b"/>
<path d="M496,328 Q496,360 580,360" fill="none" stroke="#607d8b" stroke-width="8" stroke-linejoin="round"/>
<!-- Storage tank -->
<rect x="290" y="390" width="120" height="50" rx="8" fill="#2c3e50" filter="url(#sh2)"/>
<ellipse cx="350" cy="390" rx="60" ry="20" fill="#34495e"/>
<ellipse cx="350" cy="390" rx="58" ry="18" fill="url(#tankG)"/>
<!-- Water level -->
<rect x="292" y="406" width="116" height="32" rx="0" fill="url(#waterG)" opacity="0.75"/>
<rect x="292" y="406" width="116" height="5" rx="0" fill="#fff" opacity="0.12"/>
<!-- Tank top rim -->
<ellipse cx="350" cy="390" rx="60" ry="20" fill="none" stroke="#546e7a" stroke-width="2.5"/>
<!-- Tank shine -->
<ellipse cx="350" cy="390" rx="60" ry="20" fill="url(#tankShine)"/>
<!-- Tank legs -->
<rect x="302" y="436" width="15" height="24" rx="3" fill="#2c3e50"/>
<rect x="380" y="436" width="15" height="24" rx="3" fill="#2c3e50"/>
<!-- Tap on tank -->
<rect x="402" y="416" width="18" height="10" rx="3" fill="#bdc3c7"/>
<rect x="418" y="419" width="8" height="5" rx="2" fill="#95a5a6"/>
<!-- Water drop from tap -->
<ellipse cx="428" cy="432" rx="4" ry="6" fill="#5dade2" opacity="0.7"/>
<!-- Large ground tank right side -->
<ellipse cx="640" cy="350" rx="95" ry="28" fill="#263238"/>
<rect x="545" y="350" width="190" height="90" fill="#2c3e50" filter="url(#sh2)"/>
<ellipse cx="640" cy="440" rx="95" ry="28" fill="#263238"/>
<ellipse cx="640" cy="350" rx="93" ry="26" fill="url(#tankG)"/>
<rect x="547" y="380" width="186" height="68" fill="url(#waterG)" opacity="0.55"/>
<rect x="547" y="380" width="186" height="5" fill="#fff" opacity="0.15"/>
<ellipse cx="640" cy="350" rx="93" ry="26" fill="url(#tankShine)"/>
<ellipse cx="640" cy="350" rx="93" ry="26" fill="none" stroke="#546e7a" stroke-width="2"/>
<!-- Pipe from small tank to large tank -->
<path d="M420,430 Q500,430 543,395" fill="none" stroke="#607d8b" stroke-width="9" stroke-linejoin="round"/>
<path d="M420,430 Q500,430 543,395" fill="none" stroke="#78909c" stroke-width="3.5" stroke-linejoin="round"/>
<!-- Capacity text on large tank -->
<text x="640" y="405" text-anchor="middle" font-family="'Segoe UI',Arial,sans-serif" font-size="12" fill="#90caf9" font-weight="600">5000 L</text>
<!-- Label card -->
<rect x="18" y="440" width="270" height="58" rx="7" fill="#000" fill-opacity="0.6"/>
<text x="153" y="463" text-anchor="middle" font-family="'Segoe UI',Arial,sans-serif" font-size="15" font-weight="700" fill="#fff">Rooftop Rainwater Harvesting</text>
<text x="153" y="484" text-anchor="middle" font-family="'Segoe UI',Arial,sans-serif" font-size="11" fill="#90caf9">Water Management · Est. ₹1,500</text>
</svg>