<svg viewBox="0 0 800 520" xmlns="http://www.w3.org/2000/svg">
<defs>
  <linearGradient id="sky" x1="0" y1="0" x2="0" y2="1"><stop offset="0%" stop-color="#0d2137"/><stop offset="100%" stop-color="#3a7bd5"/></linearGradient>
  <linearGradient id="gnd" x1="0" y1="0" x2="0" y2="1"><stop offset="0%" stop-color="#9e7b3a"/><stop offset="100%" stop-color="#5c4209"/></linearGradient>
  <linearGradient id="woodSide" x1="0" y1="0" x2="1" y2="0"><stop offset="0%" stop-color="#8d5524"/><stop offset="100%" stop-color="#5c3010"/></linearGradient>
  <linearGradient id="woodTop" x1="0" y1="0" x2="0" y2="1"><stop offset="0%" stop-color="#b07d40"/><stop offset="100%" stop-color="#7a501e"/></linearGradient>
  <linearGradient id="panelFace" x1="0" y1="0" x2="1" y2="1"><stop offset="0%" stop-color="#0a1628"/><stop offset="100%" stop-color="#0d2b50"/></linearGradient>
  <linearGradient id="glassOverlay" x1="0" y1="0" x2="0.5" y2="1"><stop offset="0%" stop-color="#d0ecff" stop-opacity="0.55"/><stop offset="100%" stop-color="#80bfea" stop-opacity="0.25"/></linearGradient>
  <radialGradient id="sunGlow" cx="50%" cy="50%" r="50%"><stop offset="0%" stop-color="#fffce0"/><stop offset="40%" stop-color="#fdd835"/><stop offset="100%" stop-color="#ff8f00" stop-opacity="0"/></radialGradient>
  <filter id="drpShadow"><feDropShadow dx="4" dy="8" stdDeviation="6" flood-color="#000" flood-opacity="0.35"/></filter>
  <filter id="softShadow"><feDropShadow dx="2" dy="4" stdDeviation="4" flood-color="#000" flood-opacity="0.2"/></filter>
</defs>
<rect width="800" height="520" fill="url(#sky)"/>
<ellipse cx="220" cy="374" rx="310" ry="55" fill="#000" opacity="0.15"/>
<ellipse cx="600" cy="385" rx="230" ry="48" fill="#000" opacity="0.10"/>
<rect y="408" width="800" height="112" fill="url(#gnd)"/>
<line x1="0" y1="424" x2="800" y2="424" stroke="#7a5512" stroke-width="1" opacity="0.5"/>
<!-- Sun -->
<circle cx="710" cy="80" r="56" fill="url(#sunGlow)" opacity="0.9"/>
<circle cx="710" cy="80" r="34" fill="#fdd835"/>
<g stroke="#fdd835" stroke-width="2.2" stroke-linecap="round" opacity="0.6">
  <line x1="710" y1="30" x2="710" y2="18"/><line x1="710" y1="130" x2="710" y2="142"/>
  <line x1="660" y1="80" x2="648" y2="80"/><line x1="760" y1="80" x2="772" y2="80"/>
  <line x1="675" y1="45" x2="666" y2="36"/><line x1="745" y1="115" x2="754" y2="124"/>
  <line x1="745" y1="45" x2="754" y2="36"/><line x1="675" y1="115" x2="666" y2="124"/>
</g>
<!-- Heat-ray lines -->
<line x1="682" y1="107" x2="510" y2="152" stroke="#ffd54f" stroke-width="1.5" stroke-dasharray="9 6" opacity="0.45"/>
<line x1="668" y1="118" x2="395" y2="158" stroke="#ffd54f" stroke-width="1.5" stroke-dasharray="9 6" opacity="0.38"/>
<line x1="650" y1="128" x2="280" y2="163" stroke="#ffd54f" stroke-width="1.5" stroke-dasharray="9 6" opacity="0.30"/>
<!-- Ground shadow of dryer -->
<ellipse cx="360" cy="410" rx="215" ry="14" fill="#000" opacity="0.22"/>
<!-- Main dryer body: back face -->
<polygon points="95,180 545,152 545,400 95,400" fill="url(#woodSide)" filter="url(#drpShadow)"/>
<!-- Top solar panel cover -->
<polygon points="95,180 545,152 545,185 95,213" fill="url(#panelFace)"/>
<!-- Solar panel cells grid -->
<g stroke="#1565c0" stroke-width="0.7" opacity="0.40">
  <line x1="165" y1="155" x2="165" y2="211"/><line x1="240" y1="153" x2="240" y2="209"/>
  <line x1="315" y1="152" x2="315" y2="207"/><line x1="390" y1="151" x2="390" y2="206"/>
  <line x1="465" y1="151" x2="465" y2="205"/>
  <line x1="95" y1="200" x2="545" y2="172"/>
</g>
<polygon points="100,182 315,168 315,172 100,186" fill="#90caf9" opacity="0.18"/>
<!-- Glass front face -->
<polygon points="95,213 545,185 545,400 95,400" fill="url(#glassOverlay)" stroke="#90caf9" stroke-width="1.4"/>
<polygon points="110,218 195,212 195,395 110,395" fill="#fff" opacity="0.04"/>
<!-- Interior absorber -->
<polygon points="106,220 534,193 534,393 106,393" fill="#111" opacity="0.75"/>
<!-- Shelf 1 rail -->
<polygon points="116,272 524,252 524,263 116,283" fill="#607d8b"/>
<!-- Shelf 2 rail -->
<polygon points="116,325 524,305 524,316 116,336" fill="#607d8b"/>
<!-- Shelf 3 rail -->
<polygon points="116,372 524,353 524,362 116,381" fill="#607d8b"/>
<!-- Produce shelf 1: tomatoes -->
<g>
  <ellipse cx="148" cy="264" rx="11" ry="9" fill="#c62828"/>
  <ellipse cx="175" cy="262" rx="11" ry="9" fill="#d32f2f"/>
  <ellipse cx="202" cy="261" rx="11" ry="9" fill="#e53935"/>
  <ellipse cx="229" cy="259" rx="11" ry="9" fill="#b71c1c"/>
  <ellipse cx="256" cy="258" rx="11" ry="9" fill="#c62828"/>
  <ellipse cx="283" cy="257" rx="11" ry="9" fill="#d32f2f"/>
  <ellipse cx="310" cy="256" rx="11" ry="9" fill="#c62828"/>
  <ellipse cx="337" cy="255" rx="11" ry="8" fill="#e53935"/>
  <ellipse cx="364" cy="254" rx="11" ry="8" fill="#c62828"/>
  <ellipse cx="391" cy="253" rx="11" ry="8" fill="#b71c1c"/>
  <ellipse cx="418" cy="252" rx="11" ry="8" fill="#d32f2f"/>
  <ellipse cx="445" cy="251" rx="10" ry="8" fill="#c62828"/>
  <ellipse cx="471" cy="250" rx="10" ry="7" fill="#e53935"/>
  <ellipse cx="497" cy="249" rx="9" ry="7" fill="#c62828"/>
  <line x1="148" y1="255" x2="151" y2="248" stroke="#2e7d32" stroke-width="1.5"/>
  <line x1="229" y1="250" x2="232" y2="243" stroke="#2e7d32" stroke-width="1.5"/>
  <line x1="310" y1="247" x2="313" y2="240" stroke="#2e7d32" stroke-width="1.5"/>
  <line x1="391" y1="244" x2="394" y2="237" stroke="#2e7d32" stroke-width="1.5"/>
</g>
<!-- Produce shelf 2: turmeric -->
<g>
  <ellipse cx="146" cy="316" rx="12" ry="7" fill="#f9a825"/>
  <ellipse cx="174" cy="315" rx="12" ry="7" fill="#f57f17"/>
  <ellipse cx="202" cy="314" rx="12" ry="7" fill="#fbc02d"/>
  <ellipse cx="230" cy="313" rx="12" ry="7" fill="#f9a825"/>
  <ellipse cx="258" cy="312" rx="12" ry="7" fill="#f57f17"/>
  <ellipse cx="286" cy="311" rx="12" ry="7" fill="#f9a825"/>
  <ellipse cx="314" cy="310" rx="12" ry="7" fill="#fbc02d"/>
  <ellipse cx="342" cy="309" rx="12" ry="7" fill="#f9a825"/>
  <ellipse cx="370" cy="308" rx="12" ry="7" fill="#f57f17"/>
  <ellipse cx="398" cy="307" rx="12" ry="7" fill="#f9a825"/>
  <ellipse cx="426" cy="306" rx="11" ry="6" fill="#fbc02d"/>
  <ellipse cx="452" cy="306" rx="10" ry="6" fill="#f9a825"/>
  <ellipse cx="477" cy="305" rx="10" ry="6" fill="#f57f17"/>
</g>
<!-- Produce shelf 3: green leaves/herbs -->
<g>
  <ellipse cx="146" cy="364" rx="13" ry="6" fill="#2e7d32" opacity="0.8"/>
  <ellipse cx="174" cy="363" rx="13" ry="6" fill="#388e3c" opacity="0.8"/>
  <ellipse cx="202" cy="362" rx="13" ry="6" fill="#1b5e20" opacity="0.8"/>
  <ellipse cx="230" cy="361" rx="13" ry="6" fill="#2e7d32" opacity="0.8"/>
  <ellipse cx="258" cy="360" rx="13" ry="6" fill="#388e3c" opacity="0.8"/>
  <ellipse cx="286" cy="359" rx="13" ry="6" fill="#2e7d32" opacity="0.8"/>
  <ellipse cx="314" cy="358" rx="13" ry="6" fill="#1b5e20" opacity="0.8"/>
  <ellipse cx="342" cy="357" rx="13" ry="6" fill="#2e7d32" opacity="0.8"/>
  <ellipse cx="370" cy="356" rx="12" ry="6" fill="#388e3c" opacity="0.8"/>
  <ellipse cx="396" cy="355" rx="12" ry="6" fill="#2e7d32" opacity="0.8"/>
  <ellipse cx="421" cy="355" rx="11" ry="5" fill="#1b5e20" opacity="0.8"/>
  <ellipse cx="446" cy="354" rx="10" ry="5" fill="#2e7d32" opacity="0.8"/>
</g>
<!-- Frame edges -->
<polygon points="95,178 545,150 549,155 99,183" fill="#a07840"/>
<polygon points="545,150 549,155 549,403 545,400" fill="#7a4a2e"/>
<polygon points="95,400 545,400 549,403 99,403" fill="#6b3e23"/>
<polygon points="95,178 99,183 99,403 95,400" fill="#9e6040"/>
<!-- Legs -->
<rect x="80" y="398" width="22" height="40" rx="4" fill="#4e342e" filter="url(#softShadow)"/>
<rect x="534" y="398" width="22" height="40" rx="4" fill="#4e342e" filter="url(#softShadow)"/>
<!-- Vent holes bottom -->
<rect x="80" y="362" width="18" height="32" rx="4" fill="#263238" stroke="#546e7a" stroke-width="1"/>
<line x1="84" y1="370" x2="94" y2="370" stroke="#78909c" stroke-width="1"/>
<line x1="84" y1="378" x2="94" y2="378" stroke="#78909c" stroke-width="1"/>
<line x1="84" y1="385" x2="94" y2="385" stroke="#78909c" stroke-width="1"/>
<!-- Label card -->
<rect x="18" y="436" width="248" height="62" rx="7" fill="#000" fill-opacity="0.62"/>
<text x="142" y="459" text-anchor="middle" font-family="'Segoe UI',Arial,sans-serif" font-size="15" font-weight="700" fill="#fff">Solar Crop Dryer</text>
<text x="142" y="481" text-anchor="middle" font-family="'Segoe UI',Arial,sans-serif" font-size="11.5" fill="#fdd835">Post-Harvest Technology · Est. ₹2,800</text>
</svg>